<svg width="42" height="49" viewBox="0 0 42 49" fill="none" xmlns="http://www.w3.org/2000/svg">
<path fill-rule="evenodd" clip-rule="evenodd" d="M37 24.2218C37 26.8945 33.7686 28.233 31.8787 26.3431L6.53553 0.999944C5.55922 0.0236334 3.97631 0.023634 3 0.999945C2.02369 1.97626 2.02369 3.55917 3 4.53548L36.0251 37.5606C38.23 39.7655 42 38.2039 42 35.0857V3.99994C42 2.61923 40.8807 1.49994 39.5 1.49994C38.1193 1.49994 37 2.61923 37 3.99994V24.2218ZM0.5 44.0857V11.9999C0.5 10.6192 1.61929 9.49994 3 9.49994C4.38071 9.49994 5.5 10.6192 5.5 11.9999V33.2218C5.5 35.8945 8.73143 37.233 10.6213 35.3431L18.0251 27.9393C19.392 26.5725 21.608 26.5724 22.9749 27.9393L39.5 44.4644C40.4763 45.4407 40.4763 47.0236 39.5 47.9999C38.5237 48.9763 36.9408 48.9763 35.9645 47.9999L22.6213 34.6568C21.4497 33.4852 19.5503 33.4852 18.3787 34.6568L6.47487 46.5606C4.26999 48.7655 0.5 47.2039 0.5 44.0857Z" fill="#FFEF62"/>
</svg>
