<?xml version="1.0" encoding="utf-8"?>
<!-- Generator: Adobe Illustrator 26.3.1, SVG Export Plug-In . SVG Version: 6.00 Build 0)  -->
<svg version="1.1" id="Layer_1" xmlns="http://www.w3.org/2000/svg" xmlns:xlink="http://www.w3.org/1999/xlink" x="0px" y="0px"
	 viewBox="0 0 42 42" style="enable-background:new 0 0 42 42;" xml:space="preserve">
<style type="text/css">
	.st0{opacity:0.15;fill:url(#SVGID_1_);enable-background:new    ;}
	
		.st1{fill:url(#SVGID_00000085232984745879791780000017044635159481144460_);stroke:url(#SVGID_00000163067340407892919560000011840705351743442353_);stroke-width:0.25;}
	
		.st2{fill:url(#SVGID_00000173161590441596026630000005011920385985574328_);stroke:url(#SVGID_00000108288169681729431000000002005873440122687418_);stroke-width:0.25;}
	
		.st3{fill:url(#SVGID_00000109725501882795755750000017270114179291930286_);stroke:url(#SVGID_00000089531765600762852660000000079981529971963320_);stroke-width:0.25;}
	
		.st4{fill:url(#SVGID_00000160902485293461957980000001958322126626646454_);stroke:url(#SVGID_00000147184928060024213500000003409745348060283811_);stroke-width:0.25;}
	.st5{fill:url(#SVGID_00000072251803243280596040000016203505851120593821_);}
	.st6{fill:url(#SVGID_00000057829506199718644330000000536517673318685608_);}
	
		.st7{fill:url(#SVGID_00000101085116186451907770000004284844216890724752_);stroke:url(#SVGID_00000173845229174029077620000012341897626767771576_);stroke-width:0.25;}
	
		.st8{fill:url(#SVGID_00000170240504418116764430000003219016970319717263_);stroke:url(#SVGID_00000168116348894072550810000009830274308299823801_);stroke-width:0.25;}
	
		.st9{fill:url(#SVGID_00000079482365119282028160000016707696708858535564_);stroke:url(#SVGID_00000007401471717201708500000005854600517163457925_);stroke-width:0.25;}
	
		.st10{fill:url(#SVGID_00000015328669471157157550000014610626745428405909_);stroke:url(#SVGID_00000168800682273133755800000016613684178598709632_);stroke-width:0.25;}
	
		.st11{fill:url(#SVGID_00000137832830210376022280000001079776289437814204_);stroke:url(#SVGID_00000020398121677972679520000014741393059762311096_);stroke-width:0.25;}
</style>
<linearGradient id="SVGID_1_" gradientUnits="userSpaceOnUse" x1="5.0884" y1="21.8948" x2="36.8288" y2="21.8948">
	<stop  offset="0.2593" style="stop-color:#FFDB6E"/>
	<stop  offset="1" style="stop-color:#FFBC5E"/>
</linearGradient>
<path class="st0" d="M35.7,4.5l-1.8-1.1H8.1c0,0,0,0,0,0L6.8,4L5.1,6.6V25l0.5,5.1l2.5,2.3l-0.3,4.5l2.6,3l3.1,0.3l1.7-2.2l1.8-4.3
	l7.4,0.8l2.3,3.8l2.5,2.1l3.2-1.1l1.2-2.9l0.1-4.1l1.3-1l1.5-2.5l0.3-20.4L35.7,4.5z M34.8,24.4c-0.1,0.8-0.2,1.6-0.5,2.4
	c0.2,0.5,0.3,1,0.3,1.6c0.1,0.6-0.6,1.1-1.1,1.1c-0.6,0-1-0.5-1.1-1.1c0,0,0,0,0-0.1c0-0.1,0-0.1,0-0.2c0-0.2-0.1-0.3-0.1-0.5
	c-0.1-0.2-0.1-0.4-0.2-0.5c0-0.1-0.1-0.2-0.1-0.2c0,0,0,0,0,0c0,0,0,0,0,0c-0.2-0.4-0.3-0.7-0.5-1c-0.1-0.1-0.2-0.3-0.3-0.4
	c0,0-0.1-0.1-0.1-0.1c0,0,0-0.1,0-0.1c0,0-0.1-0.1-0.1-0.1c-0.1-0.1-0.2-0.2-0.3-0.3c0,0-0.1-0.1-0.1-0.1c0,0,0,0-0.1,0
	c-0.1,0-0.2-0.1-0.2-0.1c0,0-0.1,0-0.1-0.1c-0.1,0,0,0,0.1,0c-0.1-0.1-0.4-0.1-0.5-0.2c-0.6-0.2-1.2-0.2-1.8-0.3
	c-4,0-8.1,0.2-12.1,0.1c-0.1,0-0.2,0.1-0.3,0.1c-0.6,0-1.1,0-1.7,0c-0.1,0-0.1,0-0.2,0c-0.1,0-0.3,0-0.4,0.1c-0.1,0-0.3,0.1-0.4,0.1
	c0,0-0.1,0-0.1,0c0,0-0.1,0-0.1,0c-0.1,0.1-0.2,0.1-0.4,0.2c-0.1,0-0.1,0.1-0.2,0.1c-0.1,0.1-0.1,0.1-0.1,0.1
	c-0.1,0.1-0.2,0.2-0.3,0.3c-0.3,0.3-0.5,0.7-0.8,1c-0.3,0.3-0.7,0.4-1.1,0.3v1.8c0,1.5-2.3,1.5-2.3,0V12c0-0.5,0.2-0.8,0.5-0.9
	c0-0.6,0.4-1.1,1.1-1.1c8,0,16,0.3,23.9,0.3c0.2,0,0.4,0.1,0.5,0.1c0.5,0.1,1,0.4,1,1.1c0,3.3,0.3,6.7,0.5,10
	C35,22.4,34.9,23.4,34.8,24.4z"/>
<g>
	
		<linearGradient id="SVGID_00000180326642459306877450000008940620911073970352_" gradientUnits="userSpaceOnUse" x1="4.6323" y1="21.6434" x2="37.3678" y2="21.6434">
		<stop  offset="0.2593" style="stop-color:#FFDB6E"/>
		<stop  offset="1" style="stop-color:#FFBC5E"/>
	</linearGradient>
	
		<linearGradient id="SVGID_00000046305930912923007850000012821975109344553917_" gradientUnits="userSpaceOnUse" x1="4.5073" y1="21.6434" x2="37.4928" y2="21.6434">
		<stop  offset="0.2593" style="stop-color:#FFDB6E"/>
		<stop  offset="1" style="stop-color:#FFBC5E"/>
	</linearGradient>
	
		<path style="fill:url(#SVGID_00000180326642459306877450000008940620911073970352_);stroke:url(#SVGID_00000046305930912923007850000012821975109344553917_);stroke-width:0.25;" d="
		M37.4,24.8c0-5.8,0-11.6,0-17.3c0-1.6-0.6-2.9-1.9-3.8c-1.1-0.8-2.4-0.9-3.8-0.8c-0.3,0-0.5,0.2-0.5,0.5c0,0.3,0.2,0.5,0.5,0.5
		c0.3,0,0.7,0,1,0c2,0,3.5,1.4,3.5,3.5c0,6.8,0,13.7,0,20.5c0,0.8-0.2,1.5-0.7,2.1c-0.5,0.7-1.1,1.1-2,1.3c-0.1-0.3-0.1-0.7-0.2-1
		c1.4-0.5,1.9-1.4,1.8-2.8c0-5.1,0-10.2,0-15.3c0-1.8-1.2-3-3-3c-7.5,0-15,0-22.5,0c-1.8,0-3,1.2-3,3c0,4.2,0,8.4,0,12.6
		c0,0.1,0,0.2,0,0.4c0.1,0.3,0.3,0.4,0.6,0.4c0.3,0,0.5-0.2,0.5-0.5c0-0.1,0-0.2,0-0.4c0-4.2,0-8.3,0-12.5c0-1.3,0.6-2,2-2
		c7.5,0,14.9,0,22.4,0c1.3,0,2,0.6,2,2c0,5.2,0,10.3,0,15.5c0,0.1,0,0.3,0,0.4c-0.1,0.5-0.4,0.9-0.9,1.1c-0.1-0.5-0.2-1-0.3-1.5
		c-0.5-2.6-2.5-4.3-5.1-4.3c-4.5,0-9.1,0-13.6,0c-2.5,0-4.5,1.6-5,4.1C9,28,8.9,28.6,8.8,29.2C8.2,29,7.9,28.6,7.9,28
		c0-0.3,0-0.5,0-0.8c0-0.3-0.2-0.6-0.5-0.6c-0.3,0-0.5,0.2-0.5,0.6c0,0.3,0,0.6,0,1c0.1,0.9,0.6,1.6,1.5,2c0.1,0,0.2,0.1,0.4,0.1
		c-0.1,0.3-0.1,0.6-0.2,1c-1.6-0.4-2.6-1.7-2.6-3.5c0-6.8,0-13.5,0-20.3c0-0.3,0-0.6,0.1-0.9C6.2,5,7.5,4,9.2,3.9c6.7,0,13.3,0,20,0
		c0.1,0,0.3,0,0.4,0c0.3-0.1,0.5-0.2,0.5-0.6c0-0.3-0.2-0.5-0.5-0.5c-0.1,0-0.2,0-0.3,0c-6.7,0-13.4,0-20.1,0c-2.7,0-4.6,2-4.6,4.6
		c0,1.4,0,2.8,0,4.2c0,5.4,0,10.7,0,16.1c0,2.2,1.2,3.9,3.4,4.5c0.1,0,0.1,0.1,0.2,0.1c-0.2,0.9-0.4,1.7-0.5,2.5
		c-0.4,1.9,0.3,3.5,1.8,4.7c0.6,0.4,1.3,0.6,2,0.8h1.1c0.3-0.1,0.6-0.1,0.9-0.2c1.2-0.4,2.2-1.3,2.7-2.5c0.4-1,0.8-2,1.2-3
		c0.1-0.2,0.1-0.3,0.3-0.3c2.2,0,4.5,0,6.7,0c0,0,0.1,0,0.1,0c0.3,0.9,0.7,1.8,1,2.7c0.6,1.8,1.8,2.8,3.7,3.2c0,0,0.1,0,0.1,0h1.1
		c0.1,0,0.1-0.1,0.2-0.1c1.2-0.2,2.2-0.8,2.9-1.9c0.9-1.2,1-2.5,0.7-4c-0.2-0.7-0.3-1.5-0.4-2.2c0.1,0,0.2-0.1,0.3-0.1
		c1.8-0.5,3.1-2,3.2-3.8C37.4,27.2,37.4,26,37.4,24.8z M30.9,39.2c-1.7,0.5-3.5-0.3-4.1-1.9c-0.5-1.3-1-2.5-1.5-3.8h-8.6
		c-0.5,1.3-0.9,2.5-1.4,3.8c-0.6,1.4-2,2.2-3.4,2.1c-1.5-0.1-2.7-1.2-3.1-2.6c-0.2-0.8,0-1.5,0.1-2.3c0.5-2.3,0.9-4.6,1.4-6.9
		c0.4-2,2.4-3.3,4.5-3.1c0.1,0,0.1,0,0.2,0h2.6c0,0,0,0,0,0h7l0,0h2.7c0.2,0,0.4-0.1,0.6-0.1c1.9,0,3.6,1.3,4,3.2
		c0.5,2.5,1,5.1,1.5,7.6C33.6,37.1,32.5,38.7,30.9,39.2z"/>
	
		<linearGradient id="SVGID_00000179608511357753674810000009623600249629672124_" gradientUnits="userSpaceOnUse" x1="19.3344" y1="16.7775" x2="22.41" y2="16.7775">
		<stop  offset="0.2593" style="stop-color:#FFDB6E"/>
		<stop  offset="1" style="stop-color:#FFBC5E"/>
	</linearGradient>
	
		<linearGradient id="SVGID_00000034785179280620662130000000302711126399849619_" gradientUnits="userSpaceOnUse" x1="19.2094" y1="16.7775" x2="22.535" y2="16.7775">
		<stop  offset="0.2593" style="stop-color:#FFDB6E"/>
		<stop  offset="1" style="stop-color:#FFBC5E"/>
	</linearGradient>
	
		<path style="fill:url(#SVGID_00000179608511357753674810000009623600249629672124_);stroke:url(#SVGID_00000034785179280620662130000000302711126399849619_);stroke-width:0.25;" d="
		M20.4,21c0-0.1,0-0.2,0.1-0.2c0.5-1.9,0.9-3.8,1.4-5.7c0.2-0.8,0.4-1.6,0.6-2.3c0-0.5-0.3-0.8-0.7-0.6c-0.2,0.1-0.4,0.3-0.4,0.5
		c-0.4,1.7-0.8,3.4-1.3,5.1c-0.2,1-0.5,1.9-0.7,2.9c-0.1,0.3,0.1,0.6,0.4,0.7C20,21.5,20.3,21.3,20.4,21z"/>
	
		<linearGradient id="SVGID_00000095300474651827391120000014122433965978006432_" gradientUnits="userSpaceOnUse" x1="15.2141" y1="16.7782" x2="18.6682" y2="16.7782">
		<stop  offset="0.2593" style="stop-color:#FFDB6E"/>
		<stop  offset="1" style="stop-color:#FFBC5E"/>
	</linearGradient>
	
		<linearGradient id="SVGID_00000096744289966031460020000017202637190065489058_" gradientUnits="userSpaceOnUse" x1="15.0891" y1="16.7782" x2="18.7932" y2="16.7782">
		<stop  offset="0.2593" style="stop-color:#FFDB6E"/>
		<stop  offset="1" style="stop-color:#FFBC5E"/>
	</linearGradient>
	
		<path style="fill:url(#SVGID_00000095300474651827391120000014122433965978006432_);stroke:url(#SVGID_00000096744289966031460020000017202637190065489058_);stroke-width:0.25;" d="
		M18.4,14.9c0.3-0.3,0.3-0.6,0.1-0.8c-0.2-0.2-0.5-0.2-0.8,0c-0.8,0.8-1.5,1.5-2.3,2.3c-0.3,0.3-0.3,0.6,0,0.8
		c0.2,0.2,0.4,0.5,0.7,0.7c0.5,0.5,1.1,1.1,1.6,1.6c0.2,0.2,0.4,0.3,0.7,0.1c0.2-0.1,0.3-0.4,0.2-0.6c0-0.1-0.2-0.2-0.3-0.4
		c-0.6-0.6-1.2-1.2-1.8-1.8C17.2,16.1,17.8,15.5,18.4,14.9z"/>
	
		<linearGradient id="SVGID_00000067937015056591513160000003903113724384444090_" gradientUnits="userSpaceOnUse" x1="23.3264" y1="16.7767" x2="26.7794" y2="16.7767">
		<stop  offset="0.2593" style="stop-color:#FFDB6E"/>
		<stop  offset="1" style="stop-color:#FFBC5E"/>
	</linearGradient>
	
		<linearGradient id="SVGID_00000050631573757940740100000002232106829113171843_" gradientUnits="userSpaceOnUse" x1="23.2014" y1="16.7767" x2="26.9044" y2="16.7767">
		<stop  offset="0.2593" style="stop-color:#FFDB6E"/>
		<stop  offset="1" style="stop-color:#FFBC5E"/>
	</linearGradient>
	
		<path style="fill:url(#SVGID_00000067937015056591513160000003903113724384444090_);stroke:url(#SVGID_00000050631573757940740100000002232106829113171843_);stroke-width:0.25;" d="
		M23.5,19.5c0.2,0.2,0.6,0.2,0.8,0c0.8-0.7,1.5-1.5,2.3-2.3c0.3-0.3,0.3-0.6,0-0.9c-0.4-0.5-0.9-0.9-1.3-1.4c-0.3-0.3-0.6-0.6-1-1
		c-0.3-0.2-0.6-0.2-0.8,0c-0.2,0.2-0.2,0.5,0,0.8c0.1,0.1,0.2,0.2,0.3,0.3c0.6,0.6,1.1,1.1,1.7,1.7c-0.7,0.7-1.3,1.3-1.9,1.9
		C23.3,19,23.3,19.3,23.5,19.5z"/>
	
		<linearGradient id="SVGID_00000044869292028208983980000006149502522726274493_" gradientUnits="userSpaceOnUse" x1="7.8877" y1="36.0347" x2="9.2365" y2="34.5452" gradientTransform="matrix(1 0 0 -1 0 41.8898)">
		<stop  offset="0.2593" style="stop-color:#FFDB6E"/>
		<stop  offset="1" style="stop-color:#FFBC5E"/>
	</linearGradient>
	<path style="fill:url(#SVGID_00000044869292028208983980000006149502522726274493_);" d="M7.9,6.9c0,0,0,0.1,0.1,0.1
		C8,7.1,8,7.1,8,7.2c0.1,0.1,0.3,0.2,0.6,0.2c0.1,0,0.1,0,0.2,0c0.1,0,0.1,0,0.1,0c0,0,0.1,0,0.1-0.1c0,0,0.1-0.1,0.1-0.1
		c0,0,0.1-0.1,0.1-0.1c0,0,0.1-0.1,0.1-0.1c0,0,0-0.1,0-0.1c0-0.1,0-0.1,0-0.2c0-0.1,0-0.1,0-0.2c0-0.1,0-0.1,0-0.1
		c0,0,0-0.1-0.1-0.1c0,0-0.1-0.1-0.1-0.1C9.1,6,9.1,6,9,6c0,0-0.1-0.1-0.1-0.1c0,0-0.1,0-0.1,0c-0.1,0-0.2,0-0.3,0
		c-0.1,0-0.1,0-0.1,0c0,0-0.1,0-0.1,0.1C8.1,6,8.1,6,8,6.1c0,0-0.1,0.1-0.1,0.1c0,0-0.1,0.1-0.1,0.1c0,0,0,0.1,0,0.1
		c0,0,0,0.1,0,0.2c0,0.1,0,0.1,0,0.2C7.8,6.8,7.8,6.9,7.9,6.9z"/>
	
		<linearGradient id="SVGID_00000070113822218642445100000007144903785819035545_" gradientUnits="userSpaceOnUse" x1="11.9905" y1="36.0347" x2="13.3392" y2="34.5452" gradientTransform="matrix(1 0 0 -1 0 41.8898)">
		<stop  offset="0.2593" style="stop-color:#FFDB6E"/>
		<stop  offset="1" style="stop-color:#FFBC5E"/>
	</linearGradient>
	<path style="fill:url(#SVGID_00000070113822218642445100000007144903785819035545_);" d="M12,6.9C12,7,12,7,12,7.1
		c0,0,0.1,0.1,0.1,0.1c0.1,0.1,0.3,0.2,0.6,0.2c0.1,0,0.1,0,0.2,0c0.1,0,0.1,0,0.1,0c0,0,0.1,0,0.1-0.1c0,0,0.1-0.1,0.1-0.1
		c0,0,0.1-0.1,0.1-0.1c0,0,0.1-0.1,0.1-0.1c0,0,0-0.1,0-0.1c0-0.1,0-0.1,0-0.2c0-0.1,0-0.1,0-0.2c0-0.1,0-0.1,0-0.1
		c0,0,0-0.1-0.1-0.1c0,0-0.1-0.1-0.1-0.1c0,0-0.1-0.1-0.1-0.1c0,0-0.1-0.1-0.1-0.1c0,0-0.1,0-0.1,0c-0.1,0-0.2,0-0.3,0
		c-0.1,0-0.1,0-0.1,0c0,0-0.1,0-0.1,0.1c0,0-0.1,0.1-0.1,0.1c0,0-0.1,0.1-0.1,0.1c0,0-0.1,0.1-0.1,0.1c0,0,0,0.1,0,0.1
		c0,0,0,0.1,0,0.2c0,0.1,0,0.1,0,0.2C11.9,6.8,12,6.9,12,6.9z"/>
</g>
<linearGradient id="SVGID_00000161633649194881974740000006590621692264442513_" gradientUnits="userSpaceOnUse" x1="11.4332" y1="29.8836" x2="15.5084" y2="29.8836">
	<stop  offset="0.2593" style="stop-color:#FFDB6E"/>
	<stop  offset="1" style="stop-color:#FFBC5E"/>
</linearGradient>
<linearGradient id="SVGID_00000086688800347531073150000007615059437558259880_" gradientUnits="userSpaceOnUse" x1="11.3082" y1="29.8836" x2="15.6334" y2="29.8836">
	<stop  offset="0.2593" style="stop-color:#FFDB6E"/>
	<stop  offset="1" style="stop-color:#FFBC5E"/>
</linearGradient>
<path style="fill:url(#SVGID_00000161633649194881974740000006590621692264442513_);stroke:url(#SVGID_00000086688800347531073150000007615059437558259880_);stroke-width:0.25;" d="
	M15.1,29.4h-1.2v-1.2c0-0.2-0.2-0.4-0.4-0.4c-0.2,0-0.4,0.2-0.4,0.4v1.2h-1.2c-0.2,0-0.4,0.2-0.4,0.4c0,0.2,0.2,0.4,0.4,0.4H13v1.2
	c0,0.2,0.2,0.4,0.4,0.4c0.2,0,0.4-0.2,0.4-0.4v-1.2h1.2c0.2,0,0.4-0.2,0.4-0.4C15.5,29.6,15.3,29.4,15.1,29.4z"/>
<linearGradient id="SVGID_00000062911427648028719550000014815872130223107746_" gradientUnits="userSpaceOnUse" x1="27.9056" y1="28.7784" x2="28.8897" y2="28.7784">
	<stop  offset="0.2593" style="stop-color:#FFDB6E"/>
	<stop  offset="1" style="stop-color:#FFBC5E"/>
</linearGradient>
<linearGradient id="SVGID_00000030472511542734675740000009910069473949666188_" gradientUnits="userSpaceOnUse" x1="27.7806" y1="28.7784" x2="29.0147" y2="28.7784">
	<stop  offset="0.2593" style="stop-color:#FFDB6E"/>
	<stop  offset="1" style="stop-color:#FFBC5E"/>
</linearGradient>
<circle style="fill:url(#SVGID_00000062911427648028719550000014815872130223107746_);stroke:url(#SVGID_00000030472511542734675740000009910069473949666188_);stroke-width:0.25;" cx="28.4" cy="28.8" r="0.5"/>
<linearGradient id="SVGID_00000132057170221424537210000005968474625498030009_" gradientUnits="userSpaceOnUse" x1="29.0047" y1="29.8595" x2="29.9888" y2="29.8595">
	<stop  offset="0.2593" style="stop-color:#FFDB6E"/>
	<stop  offset="1" style="stop-color:#FFBC5E"/>
</linearGradient>
<linearGradient id="SVGID_00000075133133661851143390000000440933271840933560_" gradientUnits="userSpaceOnUse" x1="28.8797" y1="29.8595" x2="30.1138" y2="29.8595">
	<stop  offset="0.2593" style="stop-color:#FFDB6E"/>
	<stop  offset="1" style="stop-color:#FFBC5E"/>
</linearGradient>
<circle style="fill:url(#SVGID_00000132057170221424537210000005968474625498030009_);stroke:url(#SVGID_00000075133133661851143390000000440933271840933560_);stroke-width:0.25;" cx="29.5" cy="29.9" r="0.5"/>
<linearGradient id="SVGID_00000002377087398961994130000011369447043899899520_" gradientUnits="userSpaceOnUse" x1="26.8565" y1="29.8595" x2="27.8406" y2="29.8595">
	<stop  offset="0.2593" style="stop-color:#FFDB6E"/>
	<stop  offset="1" style="stop-color:#FFBC5E"/>
</linearGradient>
<linearGradient id="SVGID_00000026848950054075132850000001737188981000632234_" gradientUnits="userSpaceOnUse" x1="26.7315" y1="29.8595" x2="27.9656" y2="29.8595">
	<stop  offset="0.2593" style="stop-color:#FFDB6E"/>
	<stop  offset="1" style="stop-color:#FFBC5E"/>
</linearGradient>
<circle style="fill:url(#SVGID_00000002377087398961994130000011369447043899899520_);stroke:url(#SVGID_00000026848950054075132850000001737188981000632234_);stroke-width:0.25;" cx="27.3" cy="29.9" r="0.5"/>
<linearGradient id="SVGID_00000183958996079864549130000013704572815640940954_" gradientUnits="userSpaceOnUse" x1="27.9056" y1="30.8922" x2="28.8897" y2="30.8922">
	<stop  offset="0.2593" style="stop-color:#FFDB6E"/>
	<stop  offset="1" style="stop-color:#FFBC5E"/>
</linearGradient>
<linearGradient id="SVGID_00000075878035605706798390000017897556517770505622_" gradientUnits="userSpaceOnUse" x1="27.7806" y1="30.8922" x2="29.0147" y2="30.8922">
	<stop  offset="0.2593" style="stop-color:#FFDB6E"/>
	<stop  offset="1" style="stop-color:#FFBC5E"/>
</linearGradient>
<circle style="fill:url(#SVGID_00000183958996079864549130000013704572815640940954_);stroke:url(#SVGID_00000075878035605706798390000017897556517770505622_);stroke-width:0.25;" cx="28.4" cy="30.9" r="0.5"/>
</svg>
