<svg xmlns="http://www.w3.org/2000/svg" width="1em" height="1em" viewBox="0 0 24 24"><g fill="none" stroke="currentColor" stroke-linecap="round" stroke-linejoin="round" stroke-width="1.5" color="currentColor"><path d="M17 9H7c-1.87 0-2.804 0-3.5.442c-.456.29-.835.706-1.098 1.208C2 11.416 2 12.444 2 14.5s0 3.084.402 3.85c.263.502.642.918 1.098 1.208C4.196 20 5.13 20 7 20c.613 0 .92 0 1.21-.047a3.85 3.85 0 0 0 2.083-1.073c.219-.215.415-.474.808-.993l.334-.44c.198-.263.298-.394.42-.446a.46.46 0 0 1 .315-.015c.125.039.235.16.454.4l.962 1.058c.238.263.357.394.482.51c.638.596 1.43.957 2.264 1.031c.162.015.33.015.668.015c1.87 0 2.804 0 3.5-.442c.456-.29.835-.706 1.098-1.208c.402-.766.402-1.794.402-3.85s0-3.084-.402-3.85A3.17 3.17 0 0 0 20.5 9.442C19.804 9 18.87 9 17 9m-1 4h2"/><path d="M22 15v-2.548c0-.98 0-1.47-.077-1.943a6 6 0 0 0-.157-.69c-.133-.455-.339-.875-.751-1.715c-.827-1.685-1.24-2.527-1.843-3.093a3.9 3.9 0 0 0-.97-.67C17.495 4 16.692 4 15.084 4H8.916c-1.607 0-2.41 0-3.117.34a3.9 3.9 0 0 0-.97.671c-.602.566-1.016 1.408-1.843 3.093c-.412.84-.618 1.26-.751 1.715a6 6 0 0 0-.157.69C2 10.982 2 11.472 2 12.452V15"/></g></svg>