<svg width="568" height="90" viewBox="0 0 568 90" fill="none" xmlns="http://www.w3.org/2000/svg">
<g clip-path="url(#clip0_103_2)">
<mask id="mask0_103_2" style="mask-type:luminance" maskUnits="userSpaceOnUse" x="0" y="0" width="568" height="90">
<path d="M568 0H0V90H568V0Z" fill="white"/>
</mask>
<g mask="url(#mask0_103_2)">
<path d="M146.533 38.8344V53.3986C146.533 61.8337 146.344 67.1742 147.827 68.5029C149.619 70.1145 152.86 69.8659 154.917 69.8659L158.458 69.7973V81.0441C158.449 80.907 153.477 81.0527 153.065 81.0698C150.699 81.147 148.316 81.1298 145.967 80.7612C142.803 80.264 139.674 79.0811 137.351 76.878C131.658 71.4689 132.97 62.8881 132.97 55.8331C132.97 51.187 132.97 46.5322 132.97 41.8861C132.97 41.7232 132.97 38.8344 132.97 38.8344H123.668V27.7762H132.97V11.2146H146.533V27.7762H158.458V38.8344H146.533Z" fill="#10AF13"/>
<path d="M171.859 21.5013C170.281 19.9926 169.501 18.1238 169.501 15.8779C169.501 13.632 170.281 11.7632 171.859 10.2545C173.428 8.75436 175.399 8 177.774 8C180.149 8 182.121 8.75436 183.69 10.2545C185.259 11.7632 186.047 13.6405 186.047 15.8779C186.047 18.1238 185.259 20.0011 183.69 21.5013C182.121 23.01 180.149 23.7644 177.774 23.7644C175.399 23.7644 173.428 23.01 171.859 21.5013Z" fill="#10AF13"/>
<path d="M184.41 27.7761H170.941V81.0526H184.41V27.7761Z" fill="#10AF13"/>
<path d="M278.715 33.4853C282.684 37.4542 284.664 42.9919 284.664 50.0983V81.0441H271.333V51.9156C271.333 47.7923 270.287 44.6292 268.187 42.4347C266.095 40.2488 263.24 39.1515 259.613 39.1515C255.987 39.1515 253.115 40.2488 250.997 42.4347C248.863 44.6206 247.808 47.7838 247.808 51.9156V81.0527H234.477V51.9156C234.477 47.7923 233.431 44.6292 231.33 42.4347C229.239 40.2488 226.375 39.1515 222.757 39.1515C219.079 39.1515 216.173 40.2488 214.047 42.4347C211.921 44.6206 210.858 47.7838 210.858 51.9156V81.0527H197.526V27.5361H210.858V34.6768C212.572 32.4566 214.776 30.7079 217.476 29.4392C220.177 28.1705 223.143 27.5361 226.384 27.5361C230.516 27.5361 234.194 28.4105 237.435 30.1592C240.675 31.908 243.179 34.3939 244.953 37.6342C246.668 34.5825 249.163 32.1394 252.429 30.2964C255.696 28.4619 259.245 27.5361 263.051 27.5361C269.524 27.5361 274.745 29.5163 278.715 33.4853Z" fill="#10AF13"/>
<path d="M345.739 58.2248H307.837C308.146 61.9709 309.458 64.9026 311.764 67.0199C314.07 69.1373 316.908 70.2002 320.277 70.2002C325.138 70.2002 328.602 68.1086 330.668 63.9253H344.796C343.296 68.923 340.433 73.0205 336.189 76.2265C331.945 79.4411 326.741 81.0441 320.56 81.0441C315.57 81.0441 311.095 79.9383 307.134 77.7267C303.173 75.515 300.087 72.3776 297.867 68.3229C295.646 64.2682 294.549 59.5878 294.549 54.2816C294.549 48.9239 295.638 44.2092 297.824 40.1545C300.01 36.0998 303.062 32.9795 306.989 30.8022C310.915 28.6163 315.442 27.5276 320.56 27.5276C325.489 27.5276 329.905 28.5905 333.805 30.7079C337.706 32.8252 340.733 35.8427 342.885 39.7345C345.036 43.6348 346.117 48.1095 346.117 53.1586C346.108 55.0445 345.979 56.7247 345.739 58.2248ZM332.545 49.4297C332.485 46.0608 331.268 43.3691 328.893 41.3375C326.518 39.3059 323.621 38.2943 320.191 38.2943C316.951 38.2943 314.216 39.2801 312.004 41.2432C309.792 43.2062 308.429 45.9408 307.932 49.4297H332.545Z" fill="#10AF13"/>
<path d="M427.837 77.7438C423.859 75.5407 420.738 72.4118 418.466 68.3743C416.194 64.3368 415.062 59.6735 415.062 54.393C415.062 49.1125 416.228 44.4577 418.56 40.4116C420.892 36.3741 424.073 33.2538 428.119 31.0422C432.157 28.8391 436.658 27.7333 441.631 27.7333C446.603 27.7333 451.104 28.8391 455.142 31.0422C459.18 33.2538 462.369 36.3741 464.701 40.4116C467.033 44.4492 468.199 49.1125 468.199 54.393C468.199 59.6735 466.999 64.3368 464.616 68.3743C462.224 72.4118 458.992 75.5321 454.919 77.7438C450.847 79.9468 446.303 81.0526 441.262 81.0526C436.281 81.0526 431.806 79.9554 427.837 77.7438ZM447.924 67.9628C449.998 66.8141 451.661 65.0911 452.905 62.7938C454.148 60.4964 454.765 57.7018 454.765 54.4015C454.765 49.4982 453.479 45.7178 450.898 43.0776C448.318 40.4373 445.163 39.1172 441.442 39.1172C437.721 39.1172 434.592 40.4373 432.072 43.0776C429.551 45.7178 428.299 49.4982 428.299 54.4015C428.299 59.3134 429.525 63.0852 431.977 65.7255C434.429 68.3657 437.524 69.6858 441.254 69.6858C443.611 69.6858 445.84 69.1115 447.924 67.9628Z" fill="#10AF13"/>
<path d="M487.292 77.7438C483.314 75.5407 480.193 72.4118 477.921 68.3743C475.649 64.3368 474.518 59.6735 474.518 54.393C474.518 49.1125 475.684 44.4577 478.015 40.4116C480.347 36.3741 483.528 33.2538 487.575 31.0422C491.613 28.8391 496.113 27.7333 501.086 27.7333C506.058 27.7333 510.559 28.8391 514.597 31.0422C518.635 33.2538 521.824 36.3741 524.156 40.4116C526.488 44.4492 527.654 49.1125 527.654 54.393C527.654 59.6735 526.454 64.3368 524.071 68.3743C521.679 72.4118 518.447 75.5321 514.374 77.7438C510.302 79.9468 505.758 81.0526 500.717 81.0526C495.736 81.0526 491.27 79.9554 487.292 77.7438ZM507.379 67.9628C509.453 66.8141 511.117 65.0911 512.36 62.7938C513.603 60.4964 514.22 57.7018 514.22 54.4015C514.22 49.4982 512.934 45.7178 510.354 43.0776C507.773 40.4373 504.618 39.1172 500.897 39.1172C497.168 39.1172 494.047 40.4373 491.527 43.0776C489.006 45.7178 487.755 49.4982 487.755 54.4015C487.755 59.3134 488.981 63.0852 491.432 65.7255C493.884 68.3657 496.979 69.6858 500.709 69.6858C503.075 69.6858 505.295 69.1115 507.379 67.9628Z" fill="#10AF13"/>
<path d="M558.21 29.3535C559.376 29.0963 560.567 28.9506 561.75 28.8735C562.882 28.7963 564.022 28.7877 565.154 28.8049C565.72 28.8134 566.286 28.8306 566.86 28.8477C567.151 28.8563 568 28.8477 568 28.8477C568 28.8477 568 29.6107 568 29.8078C568 30.245 568 30.6822 568 31.1108C568 33.3739 568 35.637 568 37.9C568 38.5429 568 39.1687 568 39.8116C568 39.8116 563.971 39.8374 563.602 39.8374C562.008 39.8374 560.396 40.2831 559.761 40.4803C557.635 41.1575 555.655 42.5205 554.129 44.1663C552.114 46.3437 551.745 48.9754 551.745 51.8042C551.745 52.0185 551.737 54.2816 551.737 54.4959L551.745 81.027H538.183V27.7505H551.745C551.745 27.7505 551.745 32.7995 551.745 32.9024C551.745 32.7052 552.166 32.4052 552.294 32.2852C552.534 32.0538 552.791 31.8394 553.057 31.6423C553.597 31.2222 554.18 30.8622 554.797 30.5536C555.869 29.9964 557.026 29.6107 558.21 29.3535Z" fill="#10AF13"/>
<path d="M356.431 42.1091C356.954 41.089 357.571 40.1117 358.291 39.1945C361.077 35.5942 365.004 32.9453 369.282 31.3851C376.586 28.7277 385.682 29.5078 390.964 32.7738C390.946 26.6704 390.972 17.4295 390.964 11.326H404.518C404.526 11.326 404.535 11.3346 404.535 11.3432V81.0356C404.535 81.0442 404.526 81.0527 404.518 81.0527H392.001C391.984 81.0527 390.972 81.0356 390.972 81.0099C390.972 78.6268 390.972 78.5154 390.964 76.1066C386.934 82.09 372.008 82.7672 364.172 77.3582C360.966 75.1465 358.325 72.1034 356.482 68.6744C353.884 63.8396 352.976 58.1992 353.55 52.7644C353.936 49.0697 354.733 45.3837 356.431 42.1091ZM390.286 47.7239C389.103 45.5723 387.509 43.9178 385.502 42.7691C383.496 41.6205 381.344 41.0461 379.038 41.0461C376.741 41.0461 374.614 41.6118 372.668 42.7262C370.722 43.8492 369.145 45.4865 367.936 47.6381C366.727 49.7897 366.118 52.3442 366.118 55.2931C366.118 58.2419 366.719 60.8222 367.936 63.0338C369.145 65.2455 370.739 66.9429 372.711 68.1258C374.692 69.3088 376.792 69.8917 379.038 69.8917C381.336 69.8917 383.496 69.3174 385.502 68.1687C387.509 67.02 389.103 65.3655 390.286 63.2138C391.461 61.0622 392.052 58.4734 392.052 55.4646C392.052 52.4644 391.461 49.8755 390.286 47.7239Z" fill="#10AF13"/>
<path d="M62.0353 44.8929C64.4311 44.8929 66.3733 42.9509 66.3733 40.5553C66.3733 38.1598 64.4311 36.2178 62.0353 36.2178C59.6395 36.2178 57.6973 38.1598 57.6973 40.5553C57.6973 42.9509 59.6395 44.8929 62.0353 44.8929Z" fill="#10AF13"/>
<path d="M72.7775 63.546L72.7689 79.4989C72.7689 81.0934 71.1143 83.005 69.3568 83.3307C58.5545 85.3366 26.1478 87.874 26.1478 87.874C24.6733 88.0712 24.6733 89.9228 26.1564 89.9228H81.7364C84.2655 89.9228 86.3231 88.3798 86.3231 86.4853V56.6196L72.7775 63.546Z" fill="#10AF13"/>
<path d="M26.3025 2.02305C26.3025 2.02305 58.4262 4.67187 68.997 6.54062C71.2346 6.93495 72.7692 8.40937 72.7692 10.1067V19.2275V23.4365V44.8843L86.3234 37.6922V29.0771V27.8084V3.43747C86.3234 1.543 84.2744 0 81.7367 0H26.3453C24.7164 0.197162 24.8022 1.75731 26.3025 2.02305Z" fill="#10AF13"/>
<path d="M22.3248 49.4105C22.7534 49.0076 22.239 48.3218 21.7332 48.6304C13.5201 53.6109 -4.92085 66.4864 1.23471 72.8727C3.72951 75.4615 9.38782 75.5987 12.4827 75.5387C18.7755 75.4358 26.1656 74.3386 32.2354 72.6756C40.2256 70.4811 48.173 68.1666 55.966 65.2863C63.3818 62.5432 70.5833 59.3543 77.6819 55.8225C85.0977 52.1279 92.4364 47.8589 99.1492 42.8784C99.3892 42.707 99.6207 42.527 99.8522 42.347C102.57 40.281 105.15 37.9923 107.439 35.412C109.566 33.0118 112.343 29.8572 110.886 26.3169C109.703 23.4366 104.807 22.6651 102.424 22.5108C101.19 22.4336 99.8008 22.3993 98.5662 22.5365C98.3519 22.5622 97.9918 22.6308 98.0004 22.7422C98.0089 22.9737 98.5233 22.9565 99.3378 23.2908C100.778 23.8738 102.227 24.9453 102.296 26.5912C102.347 27.817 101.798 29.0943 101.172 30.1229C100.495 31.2373 99.7922 32.0345 98.9949 32.9175C97.4774 34.6062 95.4113 36.3978 93.3194 37.9151C83.9832 44.6786 76.3445 48.1675 75.4014 48.6133C63.2361 54.3224 48.3101 59.5 40.9029 61.1373C35.5789 62.3117 30.1264 63.2375 24.6224 63.0661C22.3762 62.9975 17.8924 62.166 17.3523 59.7658C16.3664 55.4882 19.6842 51.8879 22.3248 49.4105Z" fill="#10AF13"/>
</g>
</g>
<defs>
<clipPath id="clip0_103_2">
<rect width="568" height="90" fill="white"/>
</clipPath>
</defs>
</svg>
